<svg width="75.000000" height="75.000000" viewBox="0 0 75 75" fill="none" xmlns="http://www.w3.org/2000/svg" xmlns:xlink="http://www.w3.org/1999/xlink">
	<desc>
			Created with Pixso.
	</desc>
	<defs>
		<clipPath id="clip14_346">
			<rect id="Flip H/ 24 / Solid" width="75.000000" height="75.000000" transform="translate(-0.500000 -0.500000)" fill="white" fill-opacity="0"/>
		</clipPath>
	</defs>
	<rect id="Flip H/ 24 / Solid" width="75.000000" height="75.000000" transform="translate(-0.500000 -0.500000)" fill="#FFFFFF" fill-opacity="0"/>
	<g clip-path="url(#clip14_346)">
		<path id="Vector" d="M65.12 33.87L8.87 33.87C7 33.87 5.75 35.12 5.75 37C5.75 38.87 7 40.12 8.87 40.12L65.12 40.12C67 40.12 68.25 38.87 68.25 37C68.25 35.12 67 33.87 65.12 33.87ZM52.62 46.37L21.37 46.37C20.43 46.37 19.81 46.68 19.18 47.31C17.93 48.56 17.93 50.43 19.18 51.68L34.81 67.31C35.43 67.93 36.06 68.25 37 68.25C37.93 68.25 38.56 67.93 39.18 67.31L54.81 51.68C55.43 51.06 55.75 50.43 55.75 49.5C55.75 47.62 54.5 46.37 52.62 46.37ZM47.62 24.5C47.62 26.37 48.87 27.62 50.75 27.62L52.62 27.62C53.56 27.62 54.18 27.31 54.81 26.68C56.06 25.43 56.06 23.56 54.81 22.31L52.62 20.12C51.68 19.18 50.12 18.87 48.87 19.5C47.31 20.12 46.68 22 47.62 23.56C47.62 24.18 47.62 24.18 47.62 24.5ZM35.75 14.5L37 13.25L39.5 15.75C40.12 16.37 40.75 16.68 41.68 16.68C42.62 16.68 43.25 16.37 43.87 15.75C45.12 14.5 45.12 12.62 43.87 11.37L40.43 7.93C40.12 7.62 39.81 7.62 39.5 7.31C39.5 7 39.18 6.68 38.87 6.37C37.62 5.12 35.75 5.12 34.5 6.37L31.06 9.81C29.81 11.06 29.81 12.93 31.06 14.18C32.31 15.43 34.81 15.75 35.75 14.5ZM21.68 27.62C22.62 27.62 23.25 27.31 23.87 26.68L27.31 23.25C28.56 22 28.56 20.12 27.31 18.87C26.06 17.62 24.18 17.62 22.93 18.87L19.18 22C18.87 22.62 18.56 23.56 18.56 24.18C18.56 26.06 19.81 27.31 21.68 27.62ZM33.56 27.62L38.25 27.62C40.12 27.62 41.37 26.37 41.37 24.5C41.37 22.62 40.12 21.37 38.25 21.37L33.56 21.37C31.68 21.37 30.43 22.62 30.43 24.5C30.43 26.37 32 27.62 33.56 27.62Z" fill="#F55757" fill-opacity="1.000000" fill-rule="nonzero"/>
	</g>
</svg>
