<svg width="75.000000" height="75.000000" viewBox="0 0 75 75" fill="none" xmlns="http://www.w3.org/2000/svg" xmlns:xlink="http://www.w3.org/1999/xlink">
	<desc>
			Created with Pixso.
	</desc>
	<defs>
		<clipPath id="clip14_355">
			<rect id="Layers Alt/ 24 / Solid" width="75.000000" height="75.000000" transform="translate(-0.500000 -0.500000)" fill="white" fill-opacity="0"/>
		</clipPath>
	</defs>
	<rect id="Layers Alt/ 24 / Solid" width="75.000000" height="75.000000" transform="translate(-0.500000 -0.500000)" fill="#FFFFFF" fill-opacity="0"/>
	<g clip-path="url(#clip14_355)">
		<path id="Vector" d="M49.5 21.37L18.25 21.37C16.37 21.37 15.12 22.62 15.12 24.5L15.12 32.31L38.56 32.31C40.43 32.31 41.68 33.56 41.68 35.43L41.68 58.87L49.5 58.87C51.37 58.87 52.62 57.62 52.62 55.75L52.62 24.5C52.62 22.62 51.37 21.37 49.5 21.37ZM33.87 37L8.87 37C7 37 5.75 38.25 5.75 40.12L5.75 65.12C5.75 67 7 68.25 8.87 68.25L33.87 68.25C35.75 68.25 37 67 37 65.12L37 40.12C37 38.25 35.75 37 33.87 37ZM65.12 5.75L27.62 5.75C25.75 5.75 24.5 7 24.5 8.87L24.5 16.68L54.18 16.68C56.06 16.68 57.31 17.93 57.31 19.81L57.31 49.5L65.12 49.5C67 49.5 68.25 48.25 68.25 46.37L68.25 8.87C68.25 7 67 5.75 65.12 5.75Z" fill="#F55757" fill-opacity="1.000000" fill-rule="nonzero"/>
	</g>
</svg>
