<svg width="75.000000" height="75.000000" viewBox="0 0 75 75" fill="none" xmlns="http://www.w3.org/2000/svg" xmlns:xlink="http://www.w3.org/1999/xlink">
	<desc>
			Created with Pixso.
	</desc>
	<defs>
		<clipPath id="clip14_309">
			<rect id="Rocket/ 24 / Solid" width="75.000000" height="75.000000" transform="translate(0.000000 -0.500000)" fill="white" fill-opacity="0"/>
		</clipPath>
	</defs>
	<rect id="Rocket/ 24 / Solid" width="75.000000" height="75.000000" transform="translate(0.000000 -0.500000)" fill="#FFFFFF" fill-opacity="0"/>
	<g clip-path="url(#clip14_309)">
		<path id="Vector" d="M70.62 6.06C70.31 5.12 69.37 4.18 68.43 3.87C55.31 0.43 41.87 4.5 32.81 15.12L29.37 19.18L20.93 17.31C16.87 15.75 12.5 17.62 10.62 21.37L3.75 33.56C3.12 34.5 3.12 35.43 3.75 36.37C4.06 37.31 5 37.93 5.93 38.25L15.62 40.43C14.68 42.93 14.37 45.43 13.75 47.93C13.75 48.87 14.06 49.81 14.68 50.43L24.37 60.12C25 60.75 25.62 61.06 26.56 61.06L26.87 61.06C29.68 60.75 32.18 60.43 34.68 59.5L36.56 68.87C36.87 69.81 37.5 70.75 38.43 71.06C38.75 71.37 39.37 71.37 39.68 71.37C40.31 71.37 40.62 71.37 41.25 71.06L53.43 64.18C56.87 62.31 58.75 57.93 57.81 53.87L55.62 45.12L59.37 41.68C69.68 32.93 74.06 18.87 70.62 6.06ZM22.81 27C20.93 29.5 19.06 32 17.81 34.5L11.25 32.93L15.93 24.5C16.56 23.25 17.81 22.93 19.37 23.25L24.68 24.5L22.81 27ZM50 58.56L41.56 63.25L40.31 57C43.12 55.75 45.62 53.87 47.81 52L50 49.81L51.25 55.12C51.87 56.68 50.93 58.25 50 58.56ZM52.18 27C49.68 27 47.5 24.81 47.5 22.31C47.5 19.81 49.68 17.62 52.18 17.62C54.68 17.62 56.87 19.81 56.87 22.31C56.87 24.81 55 27 52.18 27Z" fill="#F55757" fill-opacity="1.000000" fill-rule="nonzero"/>
	</g>
</svg>
