<svg width="75.000000" height="75.000000" viewBox="0 0 75 75" fill="none" xmlns="http://www.w3.org/2000/svg" xmlns:xlink="http://www.w3.org/1999/xlink">
	<desc>
			Created with Pixso.
	</desc>
	<defs>
		<clipPath id="clip14_337">
			<rect id="Shield Plus/ 24 / Solid" width="75.000000" height="75.000000" transform="translate(-0.500000 0.000000)" fill="white" fill-opacity="0"/>
		</clipPath>
	</defs>
	<rect id="Shield Plus/ 24 / Solid" width="75.000000" height="75.000000" transform="translate(-0.500000 0.000000)" fill="#FFFFFF" fill-opacity="0"/>
	<g clip-path="url(#clip14_337)">
		<path id="Vector" d="M60.75 11.25C60.12 10.62 59.18 10.31 58.25 10.62C51.37 12.18 44.5 10.62 38.87 6.56C37.93 5.93 36.37 5.93 35.43 6.56C29.5 10.62 22.62 12.18 15.75 10.62C14.18 10.31 12.31 11.56 12 13.12C12 13.43 12 13.43 12 13.75L12 37.18C12 46.25 16.37 54.68 23.87 60L35.43 68.12C36.37 68.75 37.93 68.75 39.18 68.12L50.75 60C58.25 54.68 62.62 46.25 62.62 37.18L62.62 13.75C62 12.81 61.68 11.87 60.75 11.25ZM43.25 40.62L40.12 40.62L40.12 43.75C40.12 45.62 38.87 46.87 37 46.87C35.12 46.87 33.87 45.62 33.87 43.75L33.87 40.62L30.75 40.62C28.87 40.62 27.62 39.37 27.62 37.5C27.62 35.62 28.87 34.37 30.75 34.37L33.87 34.37L33.87 31.25C33.87 29.37 35.12 28.12 37 28.12C38.87 28.12 40.12 29.37 40.12 31.25L40.12 34.37L43.25 34.37C45.12 34.37 46.37 35.62 46.37 37.5C46.37 39.37 45.12 40.62 43.25 40.62Z" fill="#F55757" fill-opacity="1.000000" fill-rule="nonzero"/>
	</g>
</svg>
