<svg width="75.000000" height="75.000000" viewBox="0 0 75 75" fill="none" xmlns="http://www.w3.org/2000/svg" xmlns:xlink="http://www.w3.org/1999/xlink">
	<desc>
			Created with Pixso.
	</desc>
	<defs>
		<clipPath id="clip14_327">
			<rect id="User Md/ 24 / Solid" width="75.000000" height="75.000000" transform="translate(0.000000 -0.500000)" fill="white" fill-opacity="0"/>
		</clipPath>
	</defs>
	<rect id="User Md/ 24 / Solid" width="75.000000" height="75.000000" transform="translate(0.000000 -0.500000)" fill="#FFFFFF" fill-opacity="0"/>
	<g clip-path="url(#clip14_327)">
		<path id="Vector" d="M49.68 40.75C49.37 40.75 49.37 40.43 49.06 40.43C53.75 37 56.25 31.68 56.25 25.75C56.25 25.12 56.25 24.5 56.25 23.87L56.25 23.56L57.18 16.06C57.81 11.06 54.37 6.68 49.68 5.75L46.87 5.12C40.62 4.18 34.37 4.18 28.12 5.12L25.62 5.75C20.62 6.68 17.18 11.06 17.81 16.06L18.75 23.56L18.75 23.87C18.75 24.5 18.75 25.12 18.75 25.75C18.75 31.37 21.25 37 25.93 40.43C25.62 40.43 25.62 40.75 25.31 40.75C15 45.12 7.81 54.81 6.56 66.06C6.25 67.62 7.5 69.18 9.37 69.5C11.25 69.81 64.06 69.5 65.62 69.5L65.93 69.5C67.5 69.18 68.75 67.62 68.75 66.06C67.18 54.81 60 45.12 49.68 40.75ZM37.5 50.43L32.18 45.12C35.62 44.5 39.06 44.5 42.5 45.12L37.5 50.43ZM37.5 38.25C30.62 38.25 25.31 32.93 25 26.06L50 26.06C49.68 32.93 44.37 38.25 37.5 38.25Z" fill="#F55757" fill-opacity="1.000000" fill-rule="nonzero"/>
	</g>
</svg>
