<svg width="24.000000" height="24.000000" viewBox="0 0 24 24" fill="none" xmlns="http://www.w3.org/2000/svg" xmlns:xlink="http://www.w3.org/1999/xlink">
	<desc>
			Created with Pixso.
	</desc>
	<defs>
		<clipPath id="clip49_1215">
			<rect id="file-copy-fill" width="24.000000" height="24.000000" fill="white" fill-opacity="0"/>
		</clipPath>
	</defs>
	<rect id="file-copy-fill" width="24.000000" height="24.000000" fill="#FFFFFF" fill-opacity="0"/>
	<g clip-path="url(#clip49_1215)">
		<path id="矢量 38" d="M7 6L7 3C7 2.73 7.1 2.48 7.29 2.29C7.48 2.1 7.73 2 8 2L20 2C20.26 2 20.51 2.1 20.7 2.29C20.89 2.48 21 2.73 21 3L21 17C21 17.26 20.89 17.51 20.7 17.7C20.51 17.89 20.26 18 20 18L17 18L17 21C17 21.55 16.54 22 15.99 22L4 22C3.87 22 3.74 21.97 3.62 21.92C3.5 21.87 3.38 21.8 3.29 21.7C3.2 21.61 3.12 21.5 3.07 21.38C3.02 21.26 3 21.13 3 21L3 7C3 6.44 3.45 6 4.01 6L7 6ZM9 6L17 6L17 16L19 16L19 4L9 4L9 6Z" fill="#F22626" fill-opacity="1.000000" fill-rule="evenodd"/>
	</g>
</svg>
