<svg width="60.000000" height="84.000000" viewBox="0 0 60 84" fill="none" xmlns="http://www.w3.org/2000/svg" xmlns:xlink="http://www.w3.org/1999/xlink">
	<desc>
			Created with Pixso.
	</desc>
	<defs>
		<clipPath id="clip19_411">
			<rect id="Гарантия" width="59.733334" height="84.000000" transform="translate(-0.366699 -0.100830)" fill="white" fill-opacity="0"/>
		</clipPath>
	</defs>
	<g clip-path="url(#clip19_411)">
		<rect id="Гарантия" x="-0.366699" y="-0.100830" width="59.111115" height="83.959114" fill="#FFFFFF" fill-opacity="0"/>
		<mask id="mask79_124" mask-type="alpha" maskUnits="userSpaceOnUse" x="-0.366699" y="-0.100830" width="59.111084" height="57.866699">
			<path id="Subtract" d="M30.74 -0.11C28.51 -0.11 26.59 1.2 25.68 3.08C23.49 3.75 21.47 4.04 19.79 4.13C18.85 3.42 17.69 3.01 16.43 3.01C13.34 3.01 10.83 5.51 10.83 8.61C10.83 8.85 10.84 9.09 10.87 9.32L10.47 11.29C10.3 12.12 9.7 12.8 8.9 13.07L8.32 13.27C7.74 13.07 7.12 12.96 6.47 12.96C3.38 12.96 0.87 15.47 0.87 18.56C0.87 20.38 1.74 22 3.08 23.02L3.68 24.19C3.81 24.44 3.88 24.71 3.88 24.98C3.88 25.31 3.79 25.63 3.61 25.92L3.33 26.36C1.17 27.13 -0.37 29.2 -0.37 31.63C-0.37 34.4 1.64 36.7 4.29 37.15L5.69 38.45C5.89 38.98 6.11 39.51 6.35 40.02C6.35 40.05 6.35 40.07 6.34 40.1C5.64 41.03 5.23 42.19 5.23 43.45C5.23 46.54 7.74 49.05 10.83 49.05C11.08 49.05 11.32 49.03 11.56 49L13.36 49.55C13.97 49.73 14.43 50.22 14.58 50.83L14.66 51.13C14.59 51.47 14.56 51.81 14.56 52.16C14.56 55.25 17.07 57.76 20.16 57.76C21.57 57.76 22.86 57.24 23.84 56.38L26.28 55.12C26.35 55.08 26.41 55.05 26.48 55.02C27.35 55.14 28.24 55.22 29.14 55.25L29.21 55.3C30.22 56.78 31.92 57.76 33.85 57.76C35.87 57.76 37.65 56.69 38.63 55.08C41.11 52.73 43.74 51.84 45.14 51.62C45.87 51.97 46.68 52.16 47.54 52.16C50.63 52.16 53.14 49.65 53.14 46.56C53.14 45.68 52.93 44.84 52.57 44.1C52.9 41.52 53.98 39.77 54.87 38.82C57.12 38.09 58.74 35.98 58.74 33.49C58.74 31.79 57.98 30.27 56.79 29.24C56.44 28.14 56.31 27.13 56.31 26.27C56.31 25.48 56.42 24.81 56.56 24.3C57.52 23.3 58.12 21.93 58.12 20.43C58.12 17.51 55.89 15.12 53.04 14.85C51.65 13.54 50.82 12.19 50.35 11.04C50.55 10.47 50.65 9.86 50.65 9.23C50.65 6.13 48.14 3.63 45.05 3.63C43.78 3.63 42.62 4.05 41.68 4.76C39.46 4.52 37.53 4 35.94 3.41C35.11 1.35 33.09 -0.11 30.74 -0.11ZM43.13 21.01L30.73 39.61C30.69 39.68 30.65 39.74 30.6 39.8C30.24 40.28 29.71 40.57 29.16 40.64C28.6 40.71 28.03 40.57 27.55 40.2C27.49 40.16 27.43 40.11 27.38 40.06L17.48 31.4C16.57 30.6 16.48 29.24 17.28 28.33C18.08 27.41 19.43 27.32 20.35 28.12L28.44 35.2L39.51 18.6C40.18 17.58 41.51 17.32 42.53 17.99C43.54 18.67 43.81 20 43.13 21.01Z" fill="#FFFFFF" fill-opacity="1.000000" fill-rule="evenodd"/>
		</mask>
		<g mask="url(#mask79_124)">
			<path id="Subtract" d="M30.74 -0.11C28.51 -0.11 26.59 1.2 25.68 3.08C23.49 3.75 21.47 4.04 19.79 4.13C18.85 3.42 17.69 3.01 16.43 3.01C13.34 3.01 10.83 5.51 10.83 8.61C10.83 8.85 10.84 9.09 10.87 9.32L10.47 11.29C10.3 12.12 9.7 12.8 8.9 13.07L8.32 13.27C7.74 13.07 7.12 12.96 6.47 12.96C3.38 12.96 0.87 15.47 0.87 18.56C0.87 20.38 1.74 22 3.08 23.02L3.68 24.19C3.81 24.44 3.88 24.71 3.88 24.98C3.88 25.31 3.79 25.63 3.61 25.92L3.33 26.36C1.17 27.13 -0.37 29.2 -0.37 31.63C-0.37 34.4 1.64 36.7 4.29 37.15L5.69 38.45C5.89 38.98 6.11 39.51 6.35 40.02C6.35 40.05 6.35 40.07 6.34 40.1C5.64 41.03 5.23 42.19 5.23 43.45C5.23 46.54 7.74 49.05 10.83 49.05C11.08 49.05 11.32 49.03 11.56 49L13.36 49.55C13.97 49.73 14.43 50.22 14.58 50.83L14.66 51.13C14.59 51.47 14.56 51.81 14.56 52.16C14.56 55.25 17.07 57.76 20.16 57.76C21.57 57.76 22.86 57.24 23.84 56.38L26.28 55.12C26.35 55.08 26.41 55.05 26.48 55.02C27.35 55.14 28.24 55.22 29.14 55.25L29.21 55.3C30.22 56.78 31.92 57.76 33.85 57.76C35.87 57.76 37.65 56.69 38.63 55.08C41.11 52.73 43.74 51.84 45.14 51.62C45.87 51.97 46.68 52.16 47.54 52.16C50.63 52.16 53.14 49.65 53.14 46.56C53.14 45.68 52.93 44.84 52.57 44.1C52.9 41.52 53.98 39.77 54.87 38.82C57.12 38.09 58.74 35.98 58.74 33.49C58.74 31.79 57.98 30.27 56.79 29.24C56.44 28.14 56.31 27.13 56.31 26.27C56.31 25.48 56.42 24.81 56.56 24.3C57.52 23.3 58.12 21.93 58.12 20.43C58.12 17.51 55.89 15.12 53.04 14.85C51.65 13.54 50.82 12.19 50.35 11.04C50.55 10.47 50.65 9.86 50.65 9.23C50.65 6.13 48.14 3.63 45.05 3.63C43.78 3.63 42.62 4.05 41.68 4.76C39.46 4.52 37.53 4 35.94 3.41C35.11 1.35 33.09 -0.11 30.74 -0.11ZM43.13 21.01L30.73 39.61C30.69 39.68 30.65 39.74 30.6 39.8C30.24 40.28 29.71 40.57 29.16 40.64C28.6 40.71 28.03 40.57 27.55 40.2C27.49 40.16 27.43 40.11 27.38 40.06L17.48 31.4C16.57 30.6 16.48 29.24 17.28 28.33C18.08 27.41 19.43 27.32 20.35 28.12L28.44 35.2L39.51 18.6C40.18 17.58 41.51 17.32 42.53 17.99C43.54 18.67 43.81 20 43.13 21.01Z" fill="#FFFFFF" fill-opacity="1.000000" fill-rule="evenodd"/>
		</g>
		<path id="Subtract" d="M30.74 0.21C28.52 0.21 26.92 1.21 25.97 3.22L25.91 3.34L25.77 3.38C23.77 3.99 21.78 4.34 19.81 4.44L19.69 4.44L19.6 4.37C18.66 3.67 17.61 3.32 16.43 3.32C14.97 3.32 13.72 3.83 12.69 4.87C11.66 5.9 11.14 7.14 11.14 8.61C11.14 8.83 11.15 9.06 11.18 9.28L10.77 11.36C10.56 12.36 9.97 13.03 9 13.37L8.32 13.6L8.21 13.57C7.65 13.37 7.07 13.27 6.47 13.27C5.01 13.27 3.77 13.79 2.73 14.82C1.7 15.85 1.18 17.1 1.18 18.56C1.18 20.31 1.88 21.71 3.27 22.77L3.96 24.04C4.11 24.34 4.19 24.65 4.19 24.98C4.19 25.38 4.08 25.75 3.87 26.08L3.54 26.61L3.44 26.65C1.11 27.49 -0.06 29.15 -0.06 31.63C-0.06 32.93 0.36 34.07 1.2 35.06C2.04 36.03 3.08 36.63 4.34 36.84L4.43 36.86L5.96 38.27L5.98 38.34C6.18 38.86 6.4 39.38 6.63 39.89L6.67 39.97L6.66 40.06C6.66 40.09 6.65 40.12 6.65 40.15L6.64 40.22C5.94 41.16 5.54 42.28 5.54 43.45C5.54 44.91 6.06 46.16 7.09 47.19C8.12 48.22 9.37 48.74 10.83 48.74C11.06 48.74 11.29 48.72 11.52 48.69L11.58 48.69L13.45 49.25C14.22 49.48 14.69 49.98 14.88 50.76L14.97 51.12L14.96 51.19C14.9 51.51 14.87 51.83 14.87 52.16C14.87 53.62 15.39 54.87 16.42 55.9C17.45 56.93 18.7 57.45 20.16 57.45C21.48 57.45 22.64 57.02 23.63 56.15L26.14 54.84C26.21 54.8 26.28 54.77 26.36 54.73L26.44 54.7L26.53 54.71C27.39 54.83 28.27 54.91 29.15 54.94L29.23 54.95L29.43 55.07C30.48 56.62 31.98 57.45 33.85 57.45C35.83 57.45 37.33 56.61 38.36 54.92L38.42 54.85C40.53 52.85 42.76 51.67 45.1 51.32L45.19 51.3L45.28 51.34C45.99 51.68 46.74 51.85 47.54 51.85C49 51.85 50.25 51.33 51.28 50.3C52.31 49.27 52.83 48.02 52.83 46.56C52.83 45.74 52.65 44.97 52.29 44.24L52.25 44.15L52.26 44.06C52.55 41.82 53.34 40 54.65 38.61L54.78 38.52C57.21 37.73 58.43 36.06 58.43 33.49C58.43 31.87 57.81 30.54 56.58 29.48L56.52 29.42L56.49 29.34C56.16 28.31 56 27.28 56 26.27C56 25.53 56.09 24.84 56.26 24.22L56.28 24.14C57.26 23.12 57.81 21.84 57.81 20.43C57.81 19.06 57.34 17.87 56.42 16.86C55.5 15.85 54.36 15.29 53.01 15.16L52.91 15.15L52.83 15.08C51.56 13.89 50.64 12.58 50.06 11.15L50.02 11.05L50.06 10.94C50.25 10.39 50.34 9.82 50.34 9.23C50.34 7.77 49.82 6.52 48.79 5.49C47.76 4.46 46.51 3.94 45.05 3.94C43.87 3.94 42.81 4.29 41.87 5.01L41.77 5.08L41.64 5.07C39.61 4.85 37.67 4.39 35.83 3.7L35.7 3.65L35.65 3.52C34.76 1.31 33.12 0.21 30.74 0.21ZM30.74 -0.42C33.4 -0.42 35.23 0.82 36.23 3.29L35.94 3.41L36.05 3.11C37.84 3.79 39.73 4.23 41.71 4.45L41.68 4.76L41.49 4.51C42.54 3.71 43.73 3.32 45.05 3.32C46.68 3.32 48.08 3.89 49.23 5.05C50.38 6.2 50.96 7.6 50.96 9.23C50.96 9.88 50.86 10.52 50.65 11.14L50.35 11.04L50.64 10.92C51.18 12.26 52.05 13.49 53.26 14.63L53.04 14.85L53.07 14.54C54.58 14.68 55.85 15.31 56.88 16.44C57.91 17.56 58.43 18.9 58.43 20.43C58.43 22.01 57.88 23.37 56.78 24.52L56.56 24.3L56.86 24.39C56.7 24.95 56.62 25.58 56.62 26.27C56.62 27.22 56.78 28.18 57.08 29.15L56.79 29.24L56.99 29.01C58.36 30.19 59.05 31.68 59.05 33.49C59.05 36.36 57.69 38.23 54.97 39.12L54.87 38.82L55.1 39.03C53.89 40.33 53.15 42.03 52.88 44.14L52.57 44.1L52.85 43.96C53.25 44.78 53.45 45.65 53.45 46.56C53.45 48.19 52.87 49.59 51.72 50.74C50.57 51.89 49.17 52.47 47.54 52.47C46.65 52.47 45.81 52.28 45.01 51.9L45.14 51.62L45.19 51.93C42.98 52.27 40.87 53.39 38.84 55.31L38.63 55.08L38.9 55.24C37.74 57.13 36.06 58.07 33.85 58.07C31.76 58.07 30.13 57.21 28.95 55.47L29.21 55.3L29.05 55.56L28.95 55.47L29.14 55.25L29.13 55.56C28.23 55.53 27.33 55.45 26.44 55.33L26.48 55.02L26.6 55.31C26.54 55.33 26.48 55.36 26.42 55.39L23.98 56.66L23.84 56.38L23.98 56.66C22.87 57.63 21.64 58.07 20.16 58.07C18.53 58.07 17.14 57.49 15.98 56.34C14.83 55.19 14.25 53.79 14.25 52.16C14.25 51.79 14.28 51.43 14.35 51.07L14.66 51.13L14.35 51.21L14.28 50.91C14.15 50.36 13.81 50.01 13.27 49.85L11.47 49.3L11.56 49L11.6 49.31C11.34 49.34 11.09 49.36 10.83 49.36C9.2 49.36 7.8 48.78 6.65 47.63C5.49 46.48 4.92 45.08 4.92 43.45C4.92 42.14 5.31 40.96 6.09 39.91L6.34 40.1L6.03 40.05L6.35 40.02L6.07 40.15C5.83 39.63 5.61 39.1 5.4 38.56L5.69 38.45L5.48 38.68L4.08 37.38L4.29 37.15L4.24 37.46C2.83 37.22 1.66 36.55 0.73 35.46C-0.21 34.36 -0.68 33.08 -0.68 31.63C-0.68 28.86 0.62 27 3.23 26.06L3.33 26.36L3.07 26.19L3.35 25.75C3.49 25.52 3.57 25.26 3.57 24.98C3.57 24.75 3.51 24.53 3.41 24.33L2.81 23.16L3.08 23.02L2.89 23.27C1.34 22.08 0.56 20.51 0.56 18.56C0.56 16.93 1.14 15.54 2.29 14.38C3.45 13.23 4.84 12.65 6.47 12.65C7.14 12.65 7.79 12.76 8.42 12.98L8.32 13.27L8.22 12.98L8.8 12.78C9.55 12.52 10 12.01 10.16 11.23L10.57 9.26L10.87 9.32L10.57 9.36C10.53 9.11 10.52 8.86 10.52 8.61C10.52 6.97 11.09 5.58 12.25 4.43C13.4 3.27 14.8 2.69 16.43 2.69C17.74 2.69 18.93 3.09 19.98 3.88L19.79 4.13L19.77 3.82C21.7 3.72 23.64 3.37 25.59 2.78L25.68 3.08L25.4 2.95C26.48 0.7 28.25 -0.42 30.74 -0.42ZM43.39 21.19L30.99 39.79L30.73 39.61L30.99 39.79C30.94 39.86 30.9 39.92 30.85 39.99C30.43 40.54 29.88 40.86 29.2 40.95C28.52 41.04 27.91 40.87 27.36 40.45C27.29 40.4 27.23 40.34 27.17 40.29L27.38 40.06L27.17 40.29L17.28 31.63C16.03 30.54 15.95 29.37 17.04 28.12C18.14 26.87 19.31 26.8 20.56 27.89L28.64 34.96L28.44 35.2L28.18 35.03L39.25 18.42C40.17 17.04 41.32 16.81 42.7 17.73C44.08 18.65 44.31 19.81 43.39 21.19ZM42.87 20.84C43.56 19.81 43.39 18.94 42.35 18.25C41.32 17.56 40.45 17.73 39.76 18.77L28.5 35.67L20.15 28.36C19.75 28.01 19.3 27.86 18.79 27.89C18.28 27.92 17.86 28.14 17.51 28.53C16.69 29.47 16.75 30.35 17.69 31.17L27.59 39.83C27.63 39.87 27.69 39.92 27.74 39.96C28.15 40.27 28.61 40.4 29.12 40.33C29.63 40.27 30.04 40.02 30.36 39.61C30.4 39.55 30.43 39.5 30.47 39.45L42.87 20.84Z" fill="#FFFFFF" fill-opacity="1.000000" fill-rule="nonzero"/>
		<path id="Subtract" d="M10.83 57.14L9.31 56.62C8.33 56.28 7.27 56.81 6.94 57.78L0.97 75.27C0.64 76.25 1.16 77.31 2.14 77.64L2.41 77.73C5.57 76.58 11.77 74.57 12.5 75.3C13.24 76.04 16.37 79.17 19.58 83.59L20.05 83.75C21.03 84.09 22.09 83.56 22.42 82.59L28.39 65.1C28.72 64.12 28.2 63.06 27.23 62.73L26.6 62.52C26.46 62.47 26.32 62.49 26.19 62.55C20.59 65.35 11.88 59.44 10.95 57.26C10.92 57.2 10.89 57.15 10.83 57.14Z" fill="#FFFFFF" fill-opacity="1.000000" fill-rule="evenodd"/>
		<path id="Subtract" d="M34.99 62.91L32.61 73.76L38.23 82.63C38.78 83.51 39.93 83.76 40.81 83.21L41.04 83.06C42.13 79.87 44.45 73.78 45.48 73.67C46.52 73.56 50.92 73.08 56.37 73.35L56.8 73.08C57.67 72.53 57.93 71.38 57.37 70.51L47.49 54.9C46.93 54.02 45.78 53.77 44.91 54.32L44.35 54.67C44.23 54.75 44.15 54.87 44.12 55.01C43.26 58.99 38.7 61.69 34.99 62.91Z" fill="#FFFFFF" fill-opacity="1.000000" fill-rule="evenodd"/>
	</g>
</svg>
