<svg width="30.000000" height="30.000000" viewBox="0 0 30 30" fill="none" xmlns="http://www.w3.org/2000/svg" xmlns:xlink="http://www.w3.org/1999/xlink">
	<desc>
			Created with Pixso.
	</desc>
	<defs>
		<clipPath id="clip11_1770">
			<rect id="fi:phone" width="30.000000" height="30.000000" transform="translate(0.000000 -0.500000)" fill="white" fill-opacity="0"/>
		</clipPath>
	</defs>
	<rect id="fi:phone" width="30.000000" height="30.000000" transform="translate(0.000000 -0.500000)" fill="#FFFFFF" fill-opacity="0"/>
	<g clip-path="url(#clip11_1770)">
		<path id="Vector" d="M27.5 24.4C27.5 24.74 27.43 25.09 27.29 25.41C27.15 25.73 26.94 26.01 26.69 26.25C26.43 26.48 26.13 26.66 25.8 26.77C25.47 26.88 25.12 26.93 24.77 26.9C20.92 26.48 17.23 25.16 13.98 23.06C10.96 21.14 8.4 18.58 6.48 15.56C4.37 12.3 3.06 8.58 2.65 4.72C2.61 4.37 2.65 4.03 2.77 3.7C2.88 3.37 3.05 3.07 3.29 2.81C3.52 2.55 3.81 2.35 4.12 2.21C4.44 2.07 4.79 2 5.13 2L8.88 2C9.49 1.99 10.08 2.2 10.54 2.6C11 2.99 11.3 3.54 11.38 4.14C11.54 5.35 11.83 6.52 12.26 7.66C12.43 8.1 12.46 8.59 12.36 9.06C12.26 9.53 12.03 9.96 11.7 10.3L10.11 11.88C11.89 15.01 14.48 17.6 17.61 19.38L19.2 17.79C19.53 17.46 19.96 17.23 20.43 17.13C20.9 17.03 21.39 17.06 21.83 17.23C22.97 17.66 24.14 17.95 25.35 18.11C25.95 18.19 26.51 18.5 26.9 18.97C27.3 19.43 27.51 20.03 27.5 20.65L27.5 24.4Z" stroke="#F55757" stroke-opacity="1.000000" stroke-width="2.000000" stroke-linejoin="round"/>
	</g>
</svg>
